<svg width="24" height="24" viewBox="0 0 24 24" fill="none" xmlns="http://www.w3.org/2000/svg">
<path fill-rule="evenodd" clip-rule="evenodd" d="M10 3H6C5.44772 3 5 3.44772 5 4V20C5 20.5523 5.44772 21 6 21H10C10.5523 21 11 20.5523 11 20V4C11 3.44772 10.5523 3 10 3ZM7 19V5H9V19H7ZM14 3H18C18.5523 3 19 3.44772 19 4V20C19 20.5523 18.5523 21 18 21H14C13.4477 21 13 20.5523 13 20V4C13 3.44772 13.4477 3 14 3ZM15 19V5H17V19H15Z" fill="#FBFBFB"/>
<mask id="mask0" mask-type="alpha" maskUnits="userSpaceOnUse" x="5" y="3" width="14" height="18">
<path fill-rule="evenodd" clip-rule="evenodd" d="M10 3H6C5.44772 3 5 3.44772 5 4V20C5 20.5523 5.44772 21 6 21H10C10.5523 21 11 20.5523 11 20V4C11 3.44772 10.5523 3 10 3ZM7 19V5H9V19H7ZM14 3H18C18.5523 3 19 3.44772 19 4V20C19 20.5523 18.5523 21 18 21H14C13.4477 21 13 20.5523 13 20V4C13 3.44772 13.4477 3 14 3ZM15 19V5H17V19H15Z" fill="white"/>
</mask>
<g mask="url(#mask0)">
<rect width="24" height="24" fill="#FBFBFB"/>
</g>
</svg>
