<svg width="24" height="24" viewBox="0 0 24 24" fill="none" xmlns="http://www.w3.org/2000/svg">
<path fill-rule="evenodd" clip-rule="evenodd" d="M1 12C1 18.0751 5.92487 23 12 23C18.0751 23 23 18.0751 23 12C23 5.92487 18.0751 1 12 1C5.92487 1 1 5.92487 1 12ZM21 12C21 16.9706 16.9706 21 12 21C7.02944 21 3 16.9706 3 12C3 7.02944 7.02944 3 12 3C16.9706 3 21 7.02944 21 12ZM10.5547 7.16795L16.5547 11.1679C17.1484 11.5638 17.1484 12.4362 16.5547 12.8321L10.5547 16.8321C9.89015 17.2751 9 16.7987 9 16V8C9 7.2013 9.89015 6.72491 10.5547 7.16795ZM14.1972 12L11 14.1315V9.86852L14.1972 12Z" fill="black"/>
<mask id="mask0" mask-type="alpha" maskUnits="userSpaceOnUse" x="1" y="1" width="22" height="22">
<path fill-rule="evenodd" clip-rule="evenodd" d="M1 12C1 18.0751 5.92487 23 12 23C18.0751 23 23 18.0751 23 12C23 5.92487 18.0751 1 12 1C5.92487 1 1 5.92487 1 12ZM21 12C21 16.9706 16.9706 21 12 21C7.02944 21 3 16.9706 3 12C3 7.02944 7.02944 3 12 3C16.9706 3 21 7.02944 21 12ZM10.5547 7.16795L16.5547 11.1679C17.1484 11.5638 17.1484 12.4362 16.5547 12.8321L10.5547 16.8321C9.89015 17.2751 9 16.7987 9 16V8C9 7.2013 9.89015 6.72491 10.5547 7.16795ZM14.1972 12L11 14.1315V9.86852L14.1972 12Z" fill="white"/>
</mask>
<g mask="url(#mask0)">
<rect x="0.5" y="0.5" width="23" height="23" fill="black" stroke="#F8F8F8" stroke-linejoin="bevel"/>
</g>
</svg>
