<svg width="24" height="24" viewBox="0 0 24 24" fill="none" xmlns="http://www.w3.org/2000/svg">
<path fill-rule="evenodd" clip-rule="evenodd" d="M7.64922 8L12.3753 4.21913C13.0301 3.69532 14 4.16149 14 5V19C14 19.8385 13.0301 20.3047 12.3753 19.7809L7.64922 16H4C3.44772 16 3 15.5523 3 15V9C3 8.44772 3.44772 8 4 8H7.64922ZM16.8328 9.167C18.3943 10.729 18.3943 13.261 16.8328 14.823C16.4423 15.2136 16.4424 15.8467 16.833 16.2372C17.2236 16.6277 17.8567 16.6276 18.2472 16.237C20.5895 13.894 20.5895 10.096 18.2472 7.753C17.8567 7.36242 17.2236 7.36232 16.833 7.75279C16.4424 8.14325 16.4423 8.77642 16.8328 9.167ZM8 10C8.22707 10 8.44738 9.92272 8.62469 9.78087L12 7.08063V16.9194L8.62469 14.2191C8.44738 14.0773 8.22707 14 8 14H5V10H8Z" fill="white"/>
<mask id="mask0" mask-type="alpha" maskUnits="userSpaceOnUse" x="3" y="3" width="18" height="18">
<path fill-rule="evenodd" clip-rule="evenodd" d="M7.64922 8L12.3753 4.21913C13.0301 3.69532 14 4.16149 14 5V19C14 19.8385 13.0301 20.3047 12.3753 19.7809L7.64922 16H4C3.44772 16 3 15.5523 3 15V9C3 8.44772 3.44772 8 4 8H7.64922ZM16.8328 9.167C18.3943 10.729 18.3943 13.261 16.8328 14.823C16.4423 15.2136 16.4424 15.8467 16.833 16.2372C17.2236 16.6277 17.8567 16.6276 18.2472 16.237C20.5895 13.894 20.5895 10.096 18.2472 7.753C17.8567 7.36242 17.2236 7.36232 16.833 7.75279C16.4424 8.14325 16.4423 8.77642 16.8328 9.167ZM8 10C8.22707 10 8.44738 9.92272 8.62469 9.78087L12 7.08063V16.9194L8.62469 14.2191C8.44738 14.0773 8.22707 14 8 14H5V10H8Z" fill="white"/>
</mask>
<g mask="url(#mask0)">
<rect width="24" height="24" fill="white"/>
</g>
</svg>
