<svg width="24" height="24" viewBox="0 0 24 24" fill="none" xmlns="http://www.w3.org/2000/svg">
<path fill-rule="evenodd" clip-rule="evenodd" d="M10.3753 4.22101L5.64922 8.00188H2C1.44772 8.00188 1 8.44959 1 9.00188V15.0019C1 15.5542 1.44772 16.0019 2 16.0019H5.64922L10.3753 19.7827C11.0301 20.3066 12 19.8404 12 19.0019V5.00188C12 4.16337 11.0301 3.6972 10.3753 4.22101ZM16.2929 14.2948L18.5858 12.0019L16.2929 9.70898C15.9024 9.31846 15.9024 8.68529 16.2929 8.29477C16.6834 7.90425 17.3166 7.90425 17.7071 8.29477L20 10.5877L22.2929 8.29477C22.6834 7.90425 23.3166 7.90425 23.7071 8.29477C24.0976 8.68529 24.0976 9.31846 23.7071 9.70898L21.4142 12.0019L23.7071 14.2948C24.0976 14.6853 24.0976 15.3185 23.7071 15.709C23.3166 16.0995 22.6834 16.0995 22.2929 15.709L20 13.4161L17.7071 15.709C17.3166 16.0995 16.6834 16.0995 16.2929 15.709C15.9024 15.3185 15.9024 14.6853 16.2929 14.2948ZM6 10.0019C6.22707 10.0019 6.44738 9.9246 6.62469 9.78275L10 7.0825V16.9213L6.62469 14.221C6.44738 14.0792 6.22707 14.0019 6 14.0019H3V10.0019H6Z" fill="white"/>
<mask id="mask0" mask-type="alpha" maskUnits="userSpaceOnUse" x="1" y="4" width="23" height="17">
<path fill-rule="evenodd" clip-rule="evenodd" d="M10.3753 4.22101L5.64922 8.00188H2C1.44772 8.00188 1 8.44959 1 9.00188V15.0019C1 15.5542 1.44772 16.0019 2 16.0019H5.64922L10.3753 19.7827C11.0301 20.3066 12 19.8404 12 19.0019V5.00188C12 4.16337 11.0301 3.6972 10.3753 4.22101ZM16.2929 14.2948L18.5858 12.0019L16.2929 9.70898C15.9024 9.31846 15.9024 8.68529 16.2929 8.29477C16.6834 7.90425 17.3166 7.90425 17.7071 8.29477L20 10.5877L22.2929 8.29477C22.6834 7.90425 23.3166 7.90425 23.7071 8.29477C24.0976 8.68529 24.0976 9.31846 23.7071 9.70898L21.4142 12.0019L23.7071 14.2948C24.0976 14.6853 24.0976 15.3185 23.7071 15.709C23.3166 16.0995 22.6834 16.0995 22.2929 15.709L20 13.4161L17.7071 15.709C17.3166 16.0995 16.6834 16.0995 16.2929 15.709C15.9024 15.3185 15.9024 14.6853 16.2929 14.2948ZM6 10.0019C6.22707 10.0019 6.44738 9.9246 6.62469 9.78275L10 7.0825V16.9213L6.62469 14.221C6.44738 14.0792 6.22707 14.0019 6 14.0019H3V10.0019H6Z" fill="white"/>
</mask>
<g mask="url(#mask0)">
<rect width="24" height="24" fill="white"/>
</g>
</svg>
